<svg xmlns="http://www.w3.org/2000/svg" xmlns:xlink="http://www.w3.org/1999/xlink" width="800" height="108.55"><rect width="800" height="108.55" rx="0" ry="0" class="a"/><svg height="108.55" viewBox="0 0 80 10.855" width="800" xmlns="http://www.w3.org/2000/svg" xmlns:xlink="http://www.w3.org/1999/xlink"><style>@keyframes f{0%{transform:translateX(-80px)}8.3%{transform:translateX(-160px)}14.9%{transform:translateX(-240px)}15.5%{transform:translateX(-400px)}15.9%{transform:translateX(-560px)}22.3%{transform:translateX(-640px)}23.6%{transform:translateX(-720px)}24.7%{transform:translateX(-800px)}26.2%{transform:translateX(-880px)}27.2%{transform:translateX(-960px)}28.1%{transform:translateX(-1040px)}29.7%{transform:translateX(-1120px)}35.4%{transform:translateX(-1200px)}36.5%{transform:translateX(-1280px)}37.5%{transform:translateX(-1360px)}42.2%{transform:translateX(-1440px)}43.1%{transform:translateX(-1520px)}48.3%{transform:translateX(-1600px)}51.6%{transform:translateX(-1680px)}52.9%{transform:translateX(-1760px)}54.2%{transform:translateX(-1840px)}54.4%{transform:translateX(-1920px)}57.6%{transform:translateX(-2000px)}59%{transform:translateX(-2080px)}62.9%{transform:translateX(-2160px)}64.5%{transform:translateX(-2240px)}66.5%{transform:translateX(-2320px)}67.9%{transform:translateX(-2400px)}85%{transform:translateX(-2480px)}85.2%{transform:translateX(-2640px)}to{transform:translateX(-2720px)}}.a{fill:#282d35}.c{fill:#b9c0cb}</style><g font-size="1.67" font-family="Monaco,Consolas,Menlo,'Bitstream Vera Sans Mono','Powerline Symbols',monospace"><defs><symbol id="1"><text y="1.67" class="c">$</text></symbol><symbol id="2"><text y="1.67" class="c">$</text><text x="2.004" y="1.67" class="c">./LeMP-repl.exe</text></symbol><symbol id="3"><text y="1.67" class="c">&gt;</text></symbol><symbol id="4"><text y="1.67" class="c">&gt;</text><text x="2.004" y="1.67" class="c">class</text></symbol><symbol id="5"><text y="1.67" class="c">&gt;</text><text x="2.004" y="1.67" class="c">class</text><text x="8.016" y="1.67" class="c">A&lt;T&gt;</text></symbol><symbol id="6"><text y="1.67" class="c">&gt;</text><text x="2.004" y="1.67" class="c">class</text><text x="8.016" y="1.67" class="c">A&lt;T&gt;</text><text x="13.026" y="1.67" class="c">{</text></symbol><symbol id="7"><text y="1.67" class="c">&gt;</text><text x="2.004" y="1.67" class="c">class</text><text x="8.016" y="1.67" class="c">A&lt;T&gt;</text><text x="13.026" y="1.67" class="c">{</text><text x="15.03" y="1.67" class="c">int</text></symbol><symbol id="8"><text y="1.67" class="c">&gt;</text><text x="2.004" y="1.67" class="c">class</text><text x="8.016" y="1.67" class="c">A&lt;T&gt;</text><text x="13.026" y="1.67" class="c">{</text><text x="15.03" y="1.67" class="c">int</text><text x="19.038" y="1.67" class="c">x;</text></symbol><symbol id="9"><text y="1.67" class="c">&gt;</text><text x="2.004" y="1.67" class="c">class</text><text x="8.016" y="1.67" class="c">A&lt;T&gt;</text><text x="13.026" y="1.67" class="c">{</text><text x="15.03" y="1.67" class="c">int</text><text x="19.038" y="1.67" class="c">x;</text><text x="22.044" y="1.67" class="c">}</text></symbol><symbol id="10"><text y="1.67" class="c">#class(A</text><text x="9.018" y="1.67" class="c">`#of`</text><text x="15.03" y="1.67" class="c">T,</text><text x="18.036" y="1.67" class="c">#(),</text><text x="23.046" y="1.67" class="c">{</text><text x="25.05" y="1.67" class="c">#var(#int32,</text><text x="38.076" y="1.67" class="c">x);</text><text x="42.084" y="1.67" class="c">});</text></symbol><symbol id="a"><path fill="transparent" d="M0 0h80v6H0z"/></symbol><symbol id="b"><path fill="#6f7683" d="M0 0h1.102v2.171H0z"/></symbol></defs><path class="a" d="M0 0h80v10.855H0z"/><g style="animation-duration:11.581253s;animation-iteration-count:infinite;animation-name:f;animation-timing-function:steps(1,end)"><svg width="2800"><svg><use xlink:href="#a"/><use xlink:href="#b" x="-.004"/></svg><svg x="80"><use xlink:href="#a"/><use xlink:href="#b" x="1.996"/><use xlink:href="#1"/></svg><svg x="160"><use xlink:href="#a"/><use xlink:href="#b" x="16.996"/><use xlink:href="#2"/></svg><svg x="240"><use xlink:href="#a"/><use xlink:href="#b" x="-.004" y="2.146"/><use xlink:href="#2"/></svg><svg x="320"><use xlink:href="#a"/><use xlink:href="#b" x="-.004" y="2.146"/><use xlink:href="#2"/></svg><svg x="400"><use xlink:href="#a"/><use xlink:href="#b" x="-.004" y="2.146"/><use xlink:href="#2"/></svg><svg x="480"><use xlink:href="#a"/><use xlink:href="#b" x="1.996" y="2.146"/><use xlink:href="#2"/><use xlink:href="#3" y="2.171"/></svg><svg x="560"><use xlink:href="#a"/><use xlink:href="#b" x="1.996" y="2.146"/><use xlink:href="#2"/><use xlink:href="#3" y="2.171"/></svg><svg x="640"><use xlink:href="#a"/><use xlink:href="#b" x="2.996" y="2.146"/><use xlink:href="#2"/><text y="3.841" class="c">&gt;</text><text x="2.004" y="3.841" class="c">c</text></svg><svg x="720"><use xlink:href="#a"/><use xlink:href="#b" x="3.996" y="2.146"/><use xlink:href="#2"/><text y="3.841" class="c">&gt;</text><text x="2.004" y="3.841" class="c">cl</text></svg><svg x="800"><use xlink:href="#a"/><use xlink:href="#b" x="4.996" y="2.146"/><use xlink:href="#2"/><text y="3.841" class="c">&gt;</text><text x="2.004" y="3.841" class="c">cla</text></svg><svg x="880"><use xlink:href="#a"/><use xlink:href="#b" x="5.996" y="2.146"/><use xlink:href="#2"/><text y="3.841" class="c">&gt;</text><text x="2.004" y="3.841" class="c">clas</text></svg><svg x="960"><use xlink:href="#a"/><use xlink:href="#b" x="6.996" y="2.146"/><use xlink:href="#2"/><use xlink:href="#4" y="2.171"/></svg><svg x="1040"><use xlink:href="#a"/><use xlink:href="#b" x="7.996" y="2.146"/><use xlink:href="#2"/><use xlink:href="#4" y="2.171"/></svg><svg x="1120"><use xlink:href="#a"/><use xlink:href="#b" x="8.996" y="2.146"/><use xlink:href="#2"/><text y="3.841" class="c">&gt;</text><text x="2.004" y="3.841" class="c">class</text><text x="8.016" y="3.841" class="c">A</text></svg><svg x="1200"><use xlink:href="#a"/><use xlink:href="#b" x="9.996" y="2.146"/><use xlink:href="#2"/><text y="3.841" class="c">&gt;</text><text x="2.004" y="3.841" class="c">class</text><text x="8.016" y="3.841" class="c">A&lt;</text></svg><svg x="1280"><use xlink:href="#a"/><use xlink:href="#b" x="10.996" y="2.146"/><use xlink:href="#2"/><text y="3.841" class="c">&gt;</text><text x="2.004" y="3.841" class="c">class</text><text x="8.016" y="3.841" class="c">A&lt;T</text></svg><svg x="1360"><use xlink:href="#a"/><use xlink:href="#b" x="11.996" y="2.146"/><use xlink:href="#2"/><use xlink:href="#5" y="2.171"/></svg><svg x="1440"><use xlink:href="#a"/><use xlink:href="#b" x="12.996" y="2.146"/><use xlink:href="#2"/><use xlink:href="#5" y="2.171"/></svg><svg x="1520"><use xlink:href="#a"/><use xlink:href="#b" x="13.996" y="2.146"/><use xlink:href="#2"/><use xlink:href="#6" y="2.171"/></svg><svg x="1600"><use xlink:href="#a"/><use xlink:href="#b" x="14.996" y="2.146"/><use xlink:href="#2"/><use xlink:href="#6" y="2.171"/></svg><svg x="1680"><use xlink:href="#a"/><use xlink:href="#b" x="15.996" y="2.146"/><use xlink:href="#2"/><text y="3.841" class="c">&gt;</text><text x="2.004" y="3.841" class="c">class</text><text x="8.016" y="3.841" class="c">A&lt;T&gt;</text><text x="13.026" y="3.841" class="c">{</text><text x="15.03" y="3.841" class="c">i</text></svg><svg x="1760"><use xlink:href="#a"/><use xlink:href="#b" x="16.996" y="2.146"/><use xlink:href="#2"/><text y="3.841" class="c">&gt;</text><text x="2.004" y="3.841" class="c">class</text><text x="8.016" y="3.841" class="c">A&lt;T&gt;</text><text x="13.026" y="3.841" class="c">{</text><text x="15.03" y="3.841" class="c">in</text></svg><svg x="1840"><use xlink:href="#a"/><use xlink:href="#b" x="17.996" y="2.146"/><use xlink:href="#2"/><use xlink:href="#7" y="2.171"/></svg><svg x="1920"><use xlink:href="#a"/><use xlink:href="#b" x="18.996" y="2.146"/><use xlink:href="#2"/><use xlink:href="#7" y="2.171"/></svg><svg x="2000"><use xlink:href="#a"/><use xlink:href="#b" x="19.996" y="2.146"/><use xlink:href="#2"/><text y="3.841" class="c">&gt;</text><text x="2.004" y="3.841" class="c">class</text><text x="8.016" y="3.841" class="c">A&lt;T&gt;</text><text x="13.026" y="3.841" class="c">{</text><text x="15.03" y="3.841" class="c">int</text><text x="19.038" y="3.841" class="c">x</text></svg><svg x="2080"><use xlink:href="#a"/><use xlink:href="#b" x="20.996" y="2.146"/><use xlink:href="#2"/><use xlink:href="#8" y="2.171"/></svg><svg x="2160"><use xlink:href="#a"/><use xlink:href="#b" x="21.996" y="2.146"/><use xlink:href="#2"/><use xlink:href="#8" y="2.171"/></svg><svg x="2240"><use xlink:href="#a"/><use xlink:href="#b" x="22.996" y="2.146"/><use xlink:href="#2"/><use xlink:href="#9" y="2.171"/></svg><svg x="2320"><use xlink:href="#a"/><use xlink:href="#b" x="-.004" y="4.317"/><use xlink:href="#2"/><use xlink:href="#9" y="2.171"/></svg><svg x="2400"><use xlink:href="#a"/><use xlink:href="#b" x="1.996" y="6.488"/><use xlink:href="#2"/><use xlink:href="#9" y="2.171"/><use xlink:href="#10" y="4.342"/><use xlink:href="#3" y="6.513"/></svg><svg x="2480"><use xlink:href="#a"/><use xlink:href="#b" x="-.004" y="8.659"/><use xlink:href="#2"/><use xlink:href="#9" y="2.171"/><use xlink:href="#10" y="4.342"/><use xlink:href="#3" y="6.513"/></svg><svg x="2560"><use xlink:href="#a"/><use xlink:href="#b" x="-.004" y="8.659"/><use xlink:href="#2"/><use xlink:href="#9" y="2.171"/><use xlink:href="#10" y="4.342"/><use xlink:href="#3" y="6.513"/></svg><svg x="2640"><use xlink:href="#a"/><use xlink:href="#b" x="1.996" y="8.659"/><use xlink:href="#2"/><use xlink:href="#9" y="2.171"/><use xlink:href="#10" y="4.342"/><use xlink:href="#3" y="6.513"/><use xlink:href="#1" y="8.684"/></svg><svg x="2720"><use xlink:href="#a"/><use xlink:href="#b" x="-.004" y="10.83"/><use xlink:href="#2"/><use xlink:href="#9" y="2.171"/><use xlink:href="#10" y="4.342"/><use xlink:href="#3" y="6.513"/><use xlink:href="#1" y="8.684"/></svg></svg></g></g></svg></svg>